# xmcd CD database file
#
# Track frame offsets:
#	150
#	28715
#	49396
#	59399
#	72856
#	91956
#	108093
#	124035
#	133141
#	146105
#	162681
#	175564
#	189088
#	199038
#	227646
#	241350
#
# Disc length: 3396 seconds
#
# Revision: 4
# Processed by: cddbd v1.5.2PL0 Copyright (c) Steve Scherf et al.
# Submitted via: CDex 1.77
#
DISCID=e00d4210
DTITLE=Ray Charles - 16 Hits
DYEAR=1990
DGENRE=Pop
TTITLE0=I gotta woman
TTITLE1=What'd I said
TTITLE2=Busted
TTITLE3=Eleanor Rigby
TTITLE4=I can't stop loving you
TTITLE5=Your cheatin' heart
TTITLE6=Cry
TTITLE7=Hit the road, Jack
TTITLE8=Unchain my heart
TTITLE9=Georgia on my mind
TTITLE10=Yesterday
TTITLE11=Crying time
TTITLE12=Bye bye love
TTITLE13=Makin' Whoopee'
TTITLE14=Let's go get stoned
TTITLE15=You are my sunshine
EXTD=YEAR: 1990
EXTT0=
EXTT1=
EXTT2=
EXTT3=
EXTT4=
EXTT5=
EXTT6=
EXTT7=
EXTT8=
EXTT9=
EXTT10=
EXTT11=
EXTT12=
EXTT13=
EXTT14=
EXTT15=
PLAYORDER=
